# xmcd
#
# Track frame offsets:
#	150
#	13973
#	30526
#	46435
#	59412
#	75211
#	95080
#	114958
#	131311
#	153129
#	170978
#	183011
#	197567
#	211546
#	231103
#	243917
#	260583
#	285321
#	314151
#	329564
#	359360
#
# Disc length: 4797 seconds
#
# Revision: 1
# Processed by: cddbd v1.5.2PL0 Copyright (c) Steve Scherf et al.
# Submitted via: audiograbber 1.83.01
#
DISCID=2112bb15
DTITLE=Top Tunes - TT-105
DYEAR=1900
DGENRE=KARAOKE
TTITLE0=Jimmy Eat World - Bleed American
TTITLE1=Creed - Bullets
TTITLE2=Linkin Park - Crawling
TTITLE3=Blink 182 - First Date
TTITLE4=Staind - For You
TTITLE5=Bush - Head Full of Ghosts
TTITLE6=Creed - Hide
TTITLE7=Linkin Park - In The End
TTITLE8=Creed - My Sacrifice
TTITLE9=Creed - One Last Breath
TTITLE10=Linkin Park - One Step Closer
TTITLE11=Linkin Park - Pushing Me Away
TTITLE12=Linkin Park - Runaway
TTITLE13=Creed - Stand Here With Me
TTITLE14=Jimmy Eat World - The Middle
TTITLE15=Adema - The Way You Like It
TTITLE16=Creed - Weathered
TTITLE17=Creed - Who's Got My Back
TTITLE18=Linkin Park - With You
TTITLE19=POD - Youth of The Nation
TTITLE20=DATA - Data Track
EXTD=
EXTT0=
EXTT1=
EXTT2=
EXTT3=
EXTT4=
EXTT5=
EXTT6=
EXTT7=
EXTT8=
EXTT9=
EXTT10=
EXTT11=
EXTT12=
EXTT13=
EXTT14=
EXTT15=
EXTT16=
EXTT17=
EXTT18=
EXTT19=
EXTT20=
PLAYORDER=
